<?xml version="1.0" encoding="UTF-8" standalone="no"?>
<!DOCTYPE svg PUBLIC "-//W3C//DTD SVG 1.1//EN" "http://www.w3.org/Graphics/SVG/1.1/DTD/svg11.dtd">
<svg width="100%" height="100%" viewBox="0 0 277 41" version="1.1" xmlns="http://www.w3.org/2000/svg" xmlns:xlink="http://www.w3.org/1999/xlink" xml:space="preserve" xmlns:serif="http://www.serif.com/" style="fill-rule:evenodd;clip-rule:evenodd;stroke-linejoin:round;stroke-miterlimit:2;">
    <g transform="matrix(1,0,0,1,-244,-227)">
        <g transform="matrix(0.882768,0,0,0.882768,32.4245,-20.268)">
            <rect x="239.673" y="282.554" width="7.68" height="33.6" style="fill:rgb(30,41,59);fill-rule:nonzero;"/>
            <path d="M270.297,292.154L270.297,294.41C268.713,292.586 266.361,291.482 263.145,291.482C256.857,291.482 251.673,297.002 251.673,304.154C251.673,311.306 256.857,316.826 263.145,316.826C266.361,316.826 268.713,315.722 270.297,313.898L270.297,316.154L277.497,316.154L277.497,292.154L270.297,292.154ZM264.585,310.01C261.273,310.01 258.873,307.754 258.873,304.154C258.873,300.554 261.273,298.298 264.585,298.298C267.897,298.298 270.297,300.554 270.297,304.154C270.297,307.754 267.897,310.01 264.585,310.01Z" style="fill:rgb(30,41,59);fill-rule:nonzero;"/>
            <path d="M296.841,291.482C293.673,291.482 291.273,292.634 289.977,294.41L289.977,292.154L282.777,292.154L282.777,316.154L289.977,316.154L289.977,303.05C289.977,299.642 291.801,298.106 294.441,298.106C296.745,298.106 298.617,299.498 298.617,302.474L298.617,316.154L305.817,316.154L305.817,301.418C305.817,294.938 301.689,291.482 296.841,291.482Z" style="fill:rgb(30,41,59);fill-rule:nonzero;"/>
            <path d="M339.033,316.826C345.177,316.826 350.553,313.802 353.433,309.05L346.809,305.21C345.369,307.802 342.441,309.338 339.033,309.338C333.081,309.338 329.241,305.354 329.241,299.354C329.241,293.354 333.081,289.37 339.033,289.37C342.441,289.37 345.321,290.906 346.809,293.498L353.433,289.658C350.505,284.906 345.129,281.882 339.033,281.882C328.905,281.882 321.561,289.466 321.561,299.354C321.561,309.242 328.905,316.826 339.033,316.826Z" style="fill:rgb(30,41,59);fill-rule:nonzero;"/>
            <path d="M374.457,292.154L374.457,294.41C372.873,292.586 370.521,291.482 367.305,291.482C361.017,291.482 355.833,297.002 355.833,304.154C355.833,311.306 361.017,316.826 367.305,316.826C370.521,316.826 372.873,315.722 374.457,313.898L374.457,316.154L381.657,316.154L381.657,292.154L374.457,292.154ZM368.745,310.01C365.433,310.01 363.033,307.754 363.033,304.154C363.033,300.554 365.433,298.298 368.745,298.298C372.057,298.298 374.457,300.554 374.457,304.154C374.457,307.754 372.057,310.01 368.745,310.01Z" style="fill:rgb(30,41,59);fill-rule:nonzero;"/>
            <rect x="386.937" y="281.114" width="7.2" height="35.04" style="fill:rgb(30,41,59);fill-rule:nonzero;"/>
            <rect x="399.417" y="281.114" width="7.2" height="35.04" style="fill:rgb(30,41,59);fill-rule:nonzero;"/>
            <path d="M429.321,292.154L429.321,294.41C427.737,292.586 425.385,291.482 422.169,291.482C415.881,291.482 410.697,297.002 410.697,304.154C410.697,311.306 415.881,316.826 422.169,316.826C425.385,316.826 427.737,315.722 429.321,313.898L429.321,316.154L436.521,316.154L436.521,292.154L429.321,292.154ZM423.609,310.01C420.297,310.01 417.897,307.754 417.897,304.154C417.897,300.554 420.297,298.298 423.609,298.298C426.921,298.298 429.321,300.554 429.321,304.154C429.321,307.754 426.921,310.01 423.609,310.01Z" style="fill:rgb(30,41,59);fill-rule:nonzero;"/>
            <path d="M459.417,292.154L459.417,294.602C457.833,292.634 455.529,291.482 452.409,291.482C445.593,291.482 440.601,297.05 440.601,303.674C440.601,310.298 445.593,315.866 452.409,315.866C455.529,315.866 457.833,314.714 459.417,312.746L459.417,314.954C459.417,318.362 457.353,320.09 453.993,320.09C450.825,320.09 449.433,318.746 448.521,317.066L442.377,320.618C444.585,324.554 448.761,326.426 453.753,326.426C460.137,326.426 466.425,323.018 466.425,314.954L466.425,292.154L459.417,292.154ZM453.609,309.242C450.201,309.242 447.801,306.986 447.801,303.674C447.801,300.362 450.201,298.106 453.609,298.106C457.017,298.106 459.417,300.362 459.417,303.674C459.417,306.986 457.017,309.242 453.609,309.242Z" style="fill:rgb(30,41,59);fill-rule:nonzero;"/>
            <path d="M485.769,291.482C482.601,291.482 480.201,292.634 478.905,294.41L478.905,282.554L471.705,282.554L471.705,316.154L478.905,316.154L478.905,303.05C478.905,299.642 480.729,298.106 483.369,298.106C485.673,298.106 487.545,299.498 487.545,302.474L487.545,316.154L494.745,316.154L494.745,301.418C494.745,294.938 490.617,291.482 485.769,291.482Z" style="fill:rgb(30,41,59);fill-rule:nonzero;"/>
            <path d="M517.113,292.154L517.113,294.41C515.529,292.586 513.177,291.482 509.961,291.482C503.673,291.482 498.489,297.002 498.489,304.154C498.489,311.306 503.673,316.826 509.961,316.826C513.177,316.826 515.529,315.722 517.113,313.898L517.113,316.154L524.313,316.154L524.313,292.154L517.113,292.154ZM511.401,310.01C508.089,310.01 505.689,307.754 505.689,304.154C505.689,300.554 508.089,298.298 511.401,298.298C514.713,298.298 517.113,300.554 517.113,304.154C517.113,307.754 514.713,310.01 511.401,310.01Z" style="fill:rgb(30,41,59);fill-rule:nonzero;"/>
            <path d="M543.657,291.482C540.489,291.482 538.089,292.634 536.793,294.41L536.793,292.154L529.593,292.154L529.593,316.154L536.793,316.154L536.793,303.05C536.793,299.642 538.617,298.106 541.257,298.106C543.561,298.106 545.433,299.498 545.433,302.474L545.433,316.154L552.633,316.154L552.633,301.418C552.633,294.938 548.505,291.482 543.657,291.482Z" style="fill:rgb(30,41,59);fill-rule:nonzero;"/>
        </g>
    </g>
</svg>
