<?xml version="1.0" encoding="UTF-8" standalone="no"?>
<!DOCTYPE svg PUBLIC "-//W3C//DTD SVG 1.1//EN" "http://www.w3.org/Graphics/SVG/1.1/DTD/svg11.dtd">
<svg width="100%" height="100%" viewBox="0 0 150 31" version="1.1" xmlns="http://www.w3.org/2000/svg" xmlns:xlink="http://www.w3.org/1999/xlink" xml:space="preserve" xmlns:serif="http://www.serif.com/" style="fill-rule:evenodd;clip-rule:evenodd;stroke-linejoin:round;stroke-miterlimit:2;">
    <g transform="matrix(1,0,0,1,-470,-265)">
        <g transform="matrix(0.612745,0,0,0.612745,324.079,111.337)">
            <path d="M239.539,285.735C239.539,286.071 239.827,286.359 240.163,286.359L241.171,286.359C241.507,286.359 241.843,286.119 241.843,285.735L241.843,253.383C241.843,253.047 241.555,252.759 241.219,252.759L240.163,252.759C239.827,252.759 239.539,253.047 239.539,253.383L239.539,285.735Z" style="fill:rgb(30,41,59);fill-rule:nonzero;"/>
            <path d="M248.227,280.455C248.227,284.391 250.963,286.839 254.515,286.839C257.587,286.839 259.939,285.255 261.187,284.103L261.379,285.831C261.475,286.167 261.619,286.359 261.955,286.359L262.531,286.359C262.867,286.359 263.155,286.071 263.155,285.735L263.155,275.079C263.155,270.183 262.915,266.679 257.059,266.679C253.075,266.679 250.627,268.023 250.483,268.119C250.243,268.215 250.051,268.407 250.195,268.839L250.435,269.415C250.531,269.751 250.771,269.943 251.155,269.799C251.587,269.655 253.747,268.503 256.915,268.503C260.707,268.503 261.139,270.615 261.139,274.839C260.611,274.647 258.499,273.975 256.291,273.975C251.251,273.975 248.227,276.759 248.227,280.455ZM250.195,280.407C250.195,277.575 252.643,275.703 256.291,275.703C258.595,275.703 260.515,276.423 261.139,276.711L261.139,281.991C260.227,283.191 257.683,284.967 254.755,284.967C252.115,284.967 250.195,283.191 250.195,280.407Z" style="fill:rgb(30,41,59);fill-rule:nonzero;"/>
            <path d="M270.259,285.735C270.259,286.071 270.451,286.359 270.787,286.359L271.699,286.359C272.131,286.359 272.323,286.119 272.323,285.735L272.323,272.055C272.515,271.815 275.251,268.743 279.187,268.743C282.835,268.743 284.899,271.047 284.899,275.463L284.899,285.735C284.899,286.071 285.187,286.359 285.523,286.359L286.387,286.359C286.723,286.359 287.011,286.071 287.011,285.735L287.011,275.463C287.011,270.087 284.659,266.679 279.283,266.679C275.443,266.679 272.803,269.031 272.179,269.703L271.987,267.639C271.939,267.351 271.747,267.159 271.411,267.159L270.931,267.159C270.547,267.159 270.259,267.447 270.259,267.783L270.259,285.735Z" style="fill:rgb(30,41,59);fill-rule:nonzero;"/>
            <path d="M303.475,269.607C303.475,279.255 311.251,286.839 320.851,286.839C325.123,286.839 329.299,285.351 332.563,282.183C332.803,281.943 332.803,281.559 332.563,281.367L331.747,280.551C331.555,280.407 331.267,280.407 330.979,280.647C328.099,283.047 324.979,284.679 320.851,284.679C312.451,284.679 305.875,277.863 305.875,269.607C305.875,261.303 312.451,254.439 320.851,254.439C324.787,254.439 328.243,255.927 330.979,258.375C331.267,258.663 331.507,258.711 331.795,258.423L332.563,257.607C332.803,257.367 332.755,256.983 332.515,256.743C329.395,253.911 325.747,252.279 320.851,252.279C311.251,252.279 303.475,260.007 303.475,269.607Z" style="fill:rgb(30,41,59);fill-rule:nonzero;"/>
            <path d="M337.123,280.455C337.123,284.391 339.859,286.839 343.411,286.839C346.483,286.839 348.835,285.255 350.083,284.103L350.275,285.831C350.371,286.167 350.515,286.359 350.851,286.359L351.427,286.359C351.763,286.359 352.051,286.071 352.051,285.735L352.051,275.079C352.051,270.183 351.811,266.679 345.955,266.679C341.971,266.679 339.523,268.023 339.379,268.119C339.139,268.215 338.947,268.407 339.091,268.839L339.331,269.415C339.427,269.751 339.667,269.943 340.051,269.799C340.483,269.655 342.643,268.503 345.811,268.503C349.603,268.503 350.035,270.615 350.035,274.839C349.507,274.647 347.395,273.975 345.187,273.975C340.147,273.975 337.123,276.759 337.123,280.455ZM339.091,280.407C339.091,277.575 341.539,275.703 345.187,275.703C347.491,275.703 349.411,276.423 350.035,276.711L350.035,281.991C349.123,283.191 346.579,284.967 343.651,284.967C341.011,284.967 339.091,283.191 339.091,280.407Z" style="fill:rgb(30,41,59);fill-rule:nonzero;"/>
            <path d="M359.155,285.735C359.155,286.071 359.347,286.359 359.683,286.359L360.643,286.359C361.075,286.359 361.267,286.119 361.267,285.735L361.267,253.383C361.267,253.047 360.979,252.759 360.643,252.759L359.779,252.759C359.443,252.759 359.155,253.047 359.155,253.383L359.155,285.735Z" style="fill:rgb(30,41,59);fill-rule:nonzero;"/>
            <path d="M368.563,285.735C368.563,286.071 368.755,286.359 369.091,286.359L370.051,286.359C370.483,286.359 370.675,286.119 370.675,285.735L370.675,253.383C370.675,253.047 370.387,252.759 370.051,252.759L369.187,252.759C368.851,252.759 368.563,253.047 368.563,253.383L368.563,285.735Z" style="fill:rgb(30,41,59);fill-rule:nonzero;"/>
            <path d="M376.435,280.455C376.435,284.391 379.171,286.839 382.723,286.839C385.795,286.839 388.147,285.255 389.395,284.103L389.587,285.831C389.683,286.167 389.827,286.359 390.163,286.359L390.739,286.359C391.075,286.359 391.363,286.071 391.363,285.735L391.363,275.079C391.363,270.183 391.123,266.679 385.267,266.679C381.283,266.679 378.835,268.023 378.691,268.119C378.451,268.215 378.259,268.407 378.403,268.839L378.643,269.415C378.739,269.751 378.979,269.943 379.363,269.799C379.795,269.655 381.955,268.503 385.123,268.503C388.915,268.503 389.347,270.615 389.347,274.839C388.819,274.647 386.707,273.975 384.499,273.975C379.459,273.975 376.435,276.759 376.435,280.455ZM378.403,280.407C378.403,277.575 380.851,275.703 384.499,275.703C386.803,275.703 388.723,276.423 389.347,276.711L389.347,281.991C388.435,283.191 385.891,284.967 382.963,284.967C380.323,284.967 378.403,283.191 378.403,280.407Z" style="fill:rgb(30,41,59);fill-rule:nonzero;"/>
            <path d="M396.499,284.727C396.499,287.607 399.283,288.903 400.243,289.095C399.235,289.719 397.219,291.303 397.219,294.135C397.219,297.399 400.051,301.239 406.579,301.239C412.435,301.239 416.371,297.495 416.371,293.415C416.371,289.143 413.395,287.271 409.267,287.271L402.307,287.271C400.435,287.271 398.515,286.743 398.515,284.487C398.515,282.231 400.579,281.175 400.963,281.031C401.587,281.703 403.315,282.759 406.195,282.759C411.091,282.759 414.163,279.063 414.163,274.791C414.163,270.807 412.099,269.127 411.187,268.647L414.643,268.407C414.931,268.359 415.075,268.071 415.075,267.831L415.075,267.303C415.075,266.967 414.835,266.679 414.451,266.679L406.579,266.679C401.395,266.679 398.179,270.183 398.179,274.791C398.179,277.095 399.139,278.919 399.667,279.591C399.139,279.879 396.499,281.511 396.499,284.727ZM406.243,280.887C402.211,280.887 400.147,278.103 400.147,274.743C400.147,271.287 402.547,268.599 406.243,268.599C409.411,268.599 412.147,270.711 412.147,274.743C412.147,278.151 409.843,280.887 406.243,280.887ZM399.331,293.895C399.331,290.631 402.739,289.287 403.219,289.239L409.267,289.239C412.819,289.239 414.163,291.255 414.163,293.463C414.163,296.727 410.851,299.271 406.531,299.271C401.875,299.271 399.331,296.535 399.331,293.895Z" style="fill:rgb(30,41,59);fill-rule:nonzero;"/>
            <path d="M420.643,285.735C420.643,286.071 420.835,286.359 421.171,286.359L422.083,286.359C422.515,286.359 422.707,286.119 422.707,285.735L422.707,272.103C422.899,271.863 425.587,268.743 429.571,268.743C433.219,268.743 435.283,271.047 435.283,275.463L435.283,285.735C435.283,286.071 435.571,286.359 435.907,286.359L436.771,286.359C437.107,286.359 437.395,286.071 437.395,285.735L437.395,275.463C437.395,269.751 434.659,266.679 429.667,266.679C425.875,266.679 423.331,269.127 422.707,269.751L422.707,253.383C422.707,253.047 422.419,252.759 422.083,252.759L421.315,252.759C420.931,252.759 420.643,253.047 420.643,253.383L420.643,285.735Z" style="fill:rgb(30,41,59);fill-rule:nonzero;"/>
            <path d="M442.867,280.455C442.867,284.391 445.603,286.839 449.155,286.839C452.227,286.839 454.579,285.255 455.827,284.103L456.019,285.831C456.115,286.167 456.259,286.359 456.595,286.359L457.171,286.359C457.507,286.359 457.795,286.071 457.795,285.735L457.795,275.079C457.795,270.183 457.555,266.679 451.699,266.679C447.715,266.679 445.267,268.023 445.123,268.119C444.883,268.215 444.691,268.407 444.835,268.839L445.075,269.415C445.171,269.751 445.411,269.943 445.795,269.799C446.227,269.655 448.387,268.503 451.555,268.503C455.347,268.503 455.779,270.615 455.779,274.839C455.251,274.647 453.139,273.975 450.931,273.975C445.891,273.975 442.867,276.759 442.867,280.455ZM444.835,280.407C444.835,277.575 447.283,275.703 450.931,275.703C453.235,275.703 455.155,276.423 455.779,276.711L455.779,281.991C454.867,283.191 452.323,284.967 449.395,284.967C446.755,284.967 444.835,283.191 444.835,280.407Z" style="fill:rgb(30,41,59);fill-rule:nonzero;"/>
            <path d="M464.899,285.735C464.899,286.071 465.091,286.359 465.427,286.359L466.339,286.359C466.771,286.359 466.963,286.119 466.963,285.735L466.963,272.055C467.155,271.815 469.891,268.743 473.827,268.743C477.475,268.743 479.539,271.047 479.539,275.463L479.539,285.735C479.539,286.071 479.827,286.359 480.163,286.359L481.027,286.359C481.363,286.359 481.651,286.071 481.651,285.735L481.651,275.463C481.651,270.087 479.299,266.679 473.923,266.679C470.083,266.679 467.443,269.031 466.819,269.703L466.627,267.639C466.579,267.351 466.387,267.159 466.051,267.159L465.571,267.159C465.187,267.159 464.899,267.447 464.899,267.783L464.899,285.735Z" style="fill:rgb(30,41,59);fill-rule:nonzero;"/>
        </g>
    </g>
</svg>
