<?xml version="1.0" encoding="UTF-8" standalone="no"?>
<!DOCTYPE svg PUBLIC "-//W3C//DTD SVG 1.1//EN" "http://www.w3.org/Graphics/SVG/1.1/DTD/svg11.dtd">
<svg width="100%" height="100%" viewBox="0 0 314 47" version="1.1" xmlns="http://www.w3.org/2000/svg" xmlns:xlink="http://www.w3.org/1999/xlink" xml:space="preserve" xmlns:serif="http://www.serif.com/" style="fill-rule:evenodd;clip-rule:evenodd;stroke-linejoin:round;stroke-miterlimit:2;">
    <g transform="matrix(1,0,0,1,-162,-264)">
        <g transform="matrix(1,0,0,1,0,62.473)">
            <rect x="162.343" y="203.927" width="7.68" height="33.6" style="fill:rgb(30,41,59);fill-rule:nonzero;"/>
            <path d="M192.967,213.527L192.967,215.783C191.383,213.959 189.031,212.855 185.815,212.855C179.527,212.855 174.343,218.375 174.343,225.527C174.343,232.679 179.527,238.199 185.815,238.199C189.031,238.199 191.383,237.095 192.967,235.271L192.967,237.527L200.167,237.527L200.167,213.527L192.967,213.527ZM187.255,231.383C183.943,231.383 181.543,229.127 181.543,225.527C181.543,221.927 183.943,219.671 187.255,219.671C190.567,219.671 192.967,221.927 192.967,225.527C192.967,229.127 190.567,231.383 187.255,231.383Z" style="fill:rgb(30,41,59);fill-rule:nonzero;"/>
            <path d="M219.511,212.855C216.343,212.855 213.943,214.007 212.647,215.783L212.647,213.527L205.447,213.527L205.447,237.527L212.647,237.527L212.647,224.423C212.647,221.015 214.471,219.479 217.111,219.479C219.415,219.479 221.287,220.871 221.287,223.847L221.287,237.527L228.487,237.527L228.487,222.791C228.487,216.311 224.359,212.855 219.511,212.855Z" style="fill:rgb(30,41,59);fill-rule:nonzero;"/>
            <path d="M261.703,238.199C267.847,238.199 273.223,235.175 276.103,230.423L269.479,226.583C268.039,229.175 265.111,230.711 261.703,230.711C255.751,230.711 251.911,226.727 251.911,220.727C251.911,214.727 255.751,210.743 261.703,210.743C265.111,210.743 267.991,212.279 269.479,214.871L276.103,211.031C273.175,206.279 267.799,203.255 261.703,203.255C251.575,203.255 244.231,210.839 244.231,220.727C244.231,230.615 251.575,238.199 261.703,238.199Z" style="fill:rgb(30,41,59);fill-rule:nonzero;"/>
            <path d="M297.127,213.527L297.127,215.783C295.543,213.959 293.191,212.855 289.975,212.855C283.687,212.855 278.503,218.375 278.503,225.527C278.503,232.679 283.687,238.199 289.975,238.199C293.191,238.199 295.543,237.095 297.127,235.271L297.127,237.527L304.327,237.527L304.327,213.527L297.127,213.527ZM291.415,231.383C288.103,231.383 285.703,229.127 285.703,225.527C285.703,221.927 288.103,219.671 291.415,219.671C294.727,219.671 297.127,221.927 297.127,225.527C297.127,229.127 294.727,231.383 291.415,231.383Z" style="fill:rgb(30,41,59);fill-rule:nonzero;"/>
            <rect x="309.607" y="202.487" width="7.2" height="35.04" style="fill:rgb(30,41,59);fill-rule:nonzero;"/>
            <rect x="322.087" y="202.487" width="7.2" height="35.04" style="fill:rgb(30,41,59);fill-rule:nonzero;"/>
            <path d="M351.991,213.527L351.991,215.783C350.407,213.959 348.055,212.855 344.839,212.855C338.551,212.855 333.367,218.375 333.367,225.527C333.367,232.679 338.551,238.199 344.839,238.199C348.055,238.199 350.407,237.095 351.991,235.271L351.991,237.527L359.191,237.527L359.191,213.527L351.991,213.527ZM346.279,231.383C342.967,231.383 340.567,229.127 340.567,225.527C340.567,221.927 342.967,219.671 346.279,219.671C349.591,219.671 351.991,221.927 351.991,225.527C351.991,229.127 349.591,231.383 346.279,231.383Z" style="fill:rgb(30,41,59);fill-rule:nonzero;"/>
            <path d="M382.087,213.527L382.087,215.975C380.503,214.007 378.199,212.855 375.079,212.855C368.263,212.855 363.271,218.423 363.271,225.047C363.271,231.671 368.263,237.239 375.079,237.239C378.199,237.239 380.503,236.087 382.087,234.119L382.087,236.327C382.087,239.735 380.023,241.463 376.663,241.463C373.495,241.463 372.103,240.119 371.191,238.439L365.047,241.991C367.255,245.927 371.431,247.799 376.423,247.799C382.807,247.799 389.095,244.391 389.095,236.327L389.095,213.527L382.087,213.527ZM376.279,230.615C372.871,230.615 370.471,228.359 370.471,225.047C370.471,221.735 372.871,219.479 376.279,219.479C379.687,219.479 382.087,221.735 382.087,225.047C382.087,228.359 379.687,230.615 376.279,230.615Z" style="fill:rgb(30,41,59);fill-rule:nonzero;"/>
            <path d="M408.439,212.855C405.271,212.855 402.871,214.007 401.575,215.783L401.575,203.927L394.375,203.927L394.375,237.527L401.575,237.527L401.575,224.423C401.575,221.015 403.399,219.479 406.039,219.479C408.343,219.479 410.215,220.871 410.215,223.847L410.215,237.527L417.415,237.527L417.415,222.791C417.415,216.311 413.287,212.855 408.439,212.855Z" style="fill:rgb(30,41,59);fill-rule:nonzero;"/>
            <path d="M439.783,213.527L439.783,215.783C438.199,213.959 435.847,212.855 432.631,212.855C426.343,212.855 421.159,218.375 421.159,225.527C421.159,232.679 426.343,238.199 432.631,238.199C435.847,238.199 438.199,237.095 439.783,235.271L439.783,237.527L446.983,237.527L446.983,213.527L439.783,213.527ZM434.071,231.383C430.759,231.383 428.359,229.127 428.359,225.527C428.359,221.927 430.759,219.671 434.071,219.671C437.383,219.671 439.783,221.927 439.783,225.527C439.783,229.127 437.383,231.383 434.071,231.383Z" style="fill:rgb(30,41,59);fill-rule:nonzero;"/>
            <path d="M466.327,212.855C463.159,212.855 460.759,214.007 459.463,215.783L459.463,213.527L452.263,213.527L452.263,237.527L459.463,237.527L459.463,224.423C459.463,221.015 461.287,219.479 463.927,219.479C466.231,219.479 468.103,220.871 468.103,223.847L468.103,237.527L475.303,237.527L475.303,222.791C475.303,216.311 471.175,212.855 466.327,212.855Z" style="fill:rgb(30,41,59);fill-rule:nonzero;"/>
        </g>
    </g>
</svg>
