<?xml version="1.0" encoding="UTF-8" standalone="no"?>
<!DOCTYPE svg PUBLIC "-//W3C//DTD SVG 1.1//EN" "http://www.w3.org/Graphics/SVG/1.1/DTD/svg11.dtd">
<svg width="100%" height="100%" viewBox="0 0 279 41" version="1.1" xmlns="http://www.w3.org/2000/svg" xmlns:xlink="http://www.w3.org/1999/xlink" xml:space="preserve" xmlns:serif="http://www.serif.com/" style="fill-rule:evenodd;clip-rule:evenodd;stroke-linejoin:round;stroke-miterlimit:2;">
    <g transform="matrix(1,0,0,1,-208,-214)">
        <g transform="matrix(0.905797,0,0,0.905797,19.6318,20.2277)">
            <path d="M209.119,249.045L214.543,249.045C214.975,249.045 215.263,248.757 215.263,248.325L215.263,216.165C215.263,215.733 214.975,215.445 214.543,215.445L209.119,215.445C208.687,215.445 208.399,215.733 208.399,216.165L208.399,248.325C208.399,248.757 208.687,249.045 209.119,249.045Z" style="fill:rgb(30,41,59);fill-rule:nonzero;"/>
            <path d="M231.439,249.621C234.943,249.621 237.487,248.133 239.119,245.733L239.215,248.325C239.215,248.757 239.503,249.045 239.935,249.045L244.591,249.045C245.023,249.045 245.359,248.757 245.359,248.325L245.359,226.245C245.359,225.813 245.071,225.525 244.639,225.525L239.935,225.525C239.503,225.525 239.215,225.813 239.215,226.245L239.119,228.837C237.535,226.389 234.991,224.949 231.439,224.949C224.815,224.949 220.255,230.325 220.255,237.285C220.255,244.293 224.815,249.621 231.439,249.621ZM226.735,237.285C226.735,233.541 229.327,230.997 232.831,230.997C236.335,230.997 238.783,233.493 238.783,237.285C238.783,241.077 236.335,243.573 232.831,243.573C229.327,243.573 226.735,241.077 226.735,237.285Z" style="fill:rgb(30,41,59);fill-rule:nonzero;"/>
            <path d="M251.791,249.045L256.975,249.045C257.407,249.045 257.695,248.757 257.695,248.325L257.695,236.133C257.695,232.821 259.519,231.045 262.303,231.045C265.135,231.045 266.671,232.821 266.671,236.133L266.671,248.325C266.671,248.757 266.959,249.045 267.391,249.045L272.527,249.045C272.959,249.045 273.295,248.757 273.295,248.325L273.295,234.645C273.295,228.501 269.695,224.949 264.799,224.949C261.295,224.949 259.039,226.677 257.695,229.077L257.503,226.293C257.503,225.717 257.215,225.525 256.783,225.525L251.791,225.525C251.359,225.525 251.071,225.813 251.071,226.245L251.071,248.325C251.071,248.757 251.359,249.045 251.791,249.045Z" style="fill:rgb(30,41,59);fill-rule:nonzero;"/>
            <path d="M305.167,249.669C309.967,249.669 313.951,247.797 316.927,244.773C317.263,244.437 317.215,244.101 316.927,243.813L313.567,240.213C313.279,239.877 312.895,239.877 312.559,240.165C310.543,241.845 308.143,242.949 305.167,242.949C299.263,242.949 294.799,238.485 294.799,232.389C294.799,226.293 299.263,221.781 305.167,221.781C308.143,221.781 310.543,222.885 312.559,224.565C312.895,224.853 313.279,224.853 313.567,224.517L316.927,220.917C317.215,220.581 317.263,220.245 316.927,219.909C313.951,216.933 309.967,215.061 305.167,215.061C295.567,215.061 287.839,222.549 287.839,232.389C287.839,242.229 295.567,249.669 305.167,249.669Z" style="fill:rgb(30,41,59);fill-rule:nonzero;"/>
            <path d="M332.095,249.621C335.599,249.621 338.143,248.133 339.775,245.733L339.871,248.325C339.871,248.757 340.159,249.045 340.591,249.045L345.247,249.045C345.679,249.045 346.015,248.757 346.015,248.325L346.015,226.245C346.015,225.813 345.727,225.525 345.295,225.525L340.591,225.525C340.159,225.525 339.871,225.813 339.871,226.245L339.775,228.837C338.191,226.389 335.647,224.949 332.095,224.949C325.471,224.949 320.911,230.325 320.911,237.285C320.911,244.293 325.471,249.621 332.095,249.621ZM327.391,237.285C327.391,233.541 329.983,230.997 333.487,230.997C336.991,230.997 339.439,233.493 339.439,237.285C339.439,241.077 336.991,243.573 333.487,243.573C329.983,243.573 327.391,241.077 327.391,237.285Z" style="fill:rgb(30,41,59);fill-rule:nonzero;"/>
            <path d="M352.447,249.045L357.679,249.045C358.111,249.045 358.399,248.757 358.399,248.325L358.399,215.445C358.399,215.013 358.111,214.725 357.679,214.725L352.447,214.725C352.015,214.725 351.727,215.013 351.727,215.445L351.727,248.325C351.727,248.757 352.015,249.045 352.447,249.045Z" style="fill:rgb(30,41,59);fill-rule:nonzero;"/>
            <path d="M364.831,249.045L370.063,249.045C370.495,249.045 370.783,248.757 370.783,248.325L370.783,215.445C370.783,215.013 370.495,214.725 370.063,214.725L364.831,214.725C364.399,214.725 364.111,215.013 364.111,215.445L364.111,248.325C364.111,248.757 364.399,249.045 364.831,249.045Z" style="fill:rgb(30,41,59);fill-rule:nonzero;"/>
            <path d="M386.479,249.621C389.983,249.621 392.527,248.133 394.159,245.733L394.255,248.325C394.255,248.757 394.543,249.045 394.975,249.045L399.631,249.045C400.063,249.045 400.399,248.757 400.399,248.325L400.399,226.245C400.399,225.813 400.111,225.525 399.679,225.525L394.975,225.525C394.543,225.525 394.255,225.813 394.255,226.245L394.159,228.837C392.575,226.389 390.031,224.949 386.479,224.949C379.855,224.949 375.295,230.325 375.295,237.285C375.295,244.293 379.855,249.621 386.479,249.621ZM381.775,237.285C381.775,233.541 384.367,230.997 387.871,230.997C391.375,230.997 393.823,233.493 393.823,237.285C393.823,241.077 391.375,243.573 387.871,243.573C384.367,243.573 381.775,241.077 381.775,237.285Z" style="fill:rgb(30,41,59);fill-rule:nonzero;"/>
            <path d="M417.199,258.885C423.007,258.885 429.631,256.197 429.631,247.749L429.631,226.245C429.631,225.813 429.343,225.525 428.911,225.525L424.207,225.525C423.775,225.525 423.439,225.813 423.439,226.245L423.343,228.405C421.855,226.197 419.455,224.949 415.999,224.949C409.375,224.949 404.911,229.845 404.911,236.757C404.911,243.717 409.375,248.565 415.999,248.565C419.359,248.565 421.807,247.269 423.295,245.157L423.295,247.701C423.295,252.069 419.887,253.509 416.575,253.509C414.511,253.509 412.399,252.933 410.335,251.781C409.807,251.493 409.375,251.685 409.135,252.165L407.743,254.805C407.503,255.237 407.551,255.861 408.031,256.197C410.335,257.925 413.695,258.885 417.199,258.885ZM411.391,236.757C411.391,233.205 413.887,230.901 417.295,230.901C420.655,230.901 423.055,233.157 423.055,236.757C423.055,240.357 420.655,242.613 417.295,242.613C413.887,242.613 411.391,240.357 411.391,236.757Z" style="fill:rgb(30,41,59);fill-rule:nonzero;"/>
            <path d="M436.015,249.045L441.199,249.045C441.631,249.045 441.919,248.757 441.919,248.325L441.919,236.133C441.919,232.821 443.743,231.045 446.527,231.045C449.359,231.045 450.895,232.821 450.895,236.133L450.895,248.325C450.895,248.757 451.183,249.045 451.615,249.045L456.751,249.045C457.183,249.045 457.519,248.757 457.519,248.325L457.519,234.645C457.519,228.501 453.919,224.949 449.023,224.949C445.519,224.949 443.263,226.677 441.919,229.077L441.919,215.445C441.919,215.013 441.631,214.725 441.199,214.725L436.015,214.725C435.583,214.725 435.295,215.013 435.295,215.445L435.295,248.325C435.295,248.757 435.583,249.045 436.015,249.045Z" style="fill:rgb(30,41,59);fill-rule:nonzero;"/>
            <path d="M473.167,249.621C476.671,249.621 479.215,248.133 480.847,245.733L480.943,248.325C480.943,248.757 481.231,249.045 481.663,249.045L486.319,249.045C486.751,249.045 487.087,248.757 487.087,248.325L487.087,226.245C487.087,225.813 486.799,225.525 486.367,225.525L481.663,225.525C481.231,225.525 480.943,225.813 480.943,226.245L480.847,228.837C479.263,226.389 476.719,224.949 473.167,224.949C466.543,224.949 461.983,230.325 461.983,237.285C461.983,244.293 466.543,249.621 473.167,249.621ZM468.463,237.285C468.463,233.541 471.055,230.997 474.559,230.997C478.063,230.997 480.511,233.493 480.511,237.285C480.511,241.077 478.063,243.573 474.559,243.573C471.055,243.573 468.463,241.077 468.463,237.285Z" style="fill:rgb(30,41,59);fill-rule:nonzero;"/>
            <path d="M493.519,249.045L498.703,249.045C499.135,249.045 499.423,248.757 499.423,248.325L499.423,236.133C499.423,232.821 501.247,231.045 504.031,231.045C506.863,231.045 508.399,232.821 508.399,236.133L508.399,248.325C508.399,248.757 508.687,249.045 509.119,249.045L514.255,249.045C514.687,249.045 515.023,248.757 515.023,248.325L515.023,234.645C515.023,228.501 511.423,224.949 506.527,224.949C503.023,224.949 500.767,226.677 499.423,229.077L499.231,226.293C499.231,225.717 498.943,225.525 498.511,225.525L493.519,225.525C493.087,225.525 492.799,225.813 492.799,226.245L492.799,248.325C492.799,248.757 493.087,249.045 493.519,249.045Z" style="fill:rgb(30,41,59);fill-rule:nonzero;"/>
        </g>
    </g>
</svg>
